<!DOCTYPE svg PUBLIC "-//W3C//DTD SVG 20010904//EN" "http://www.w3.org/TR/2001/REC-SVG-20010904/DTD/svg10.dtd">
<svg version="1.0" 
    xmlns="http://www.w3.org/2000/svg" width="938px" height="938px" viewBox="0 0 4200 4200" preserveAspectRatio="xMidYMid meet">
    <g id="layer101" fill="#000000" stroke="none">
        <path d="M0 2100 l0 -2100 2100 0 2100 0 0 2100 0 2100 -2100 0 -2100 0 0 -2100z"/>
    </g>
    <g id="layer102" fill="#22b14c" stroke="none">
        <script>
{
const skin = document.getElementById("layer102")
let count = 0

const colors = ['#ff00ff', '#FF6633', '#FFB399', '#FF33FF', '#FFFF99', '#00B3E6', 
		  '#E6B333', '#3366E6', '#999966', '#99FF99', '#B34D4D',
		  '#80B300', '#809900', '#E6B3B3', '#6680B3', '#66991A', 
		  '#FF99E6', '#CCFF1A', '#FF1A66', '#E6331A', '#33FFCC',
		  '#66994D', '#B366CC', '#4D8000', '#B33300', '#CC80CC', 
		  '#66664D', '#991AFF', '#E666FF', '#4DB3FF', '#1AB399',
		  '#E666B3', '#33991A', '#CC9999', '#B3B31A', '#00E680', 
		  '#4D8066', '#809980', '#E6FF80', '#1AFF33', '#999933',
		  '#FF3380', '#CCCC00', '#66E64D', '#4D80CC', '#9900B3', 
		  '#E64D66', '#4DB380', '#FF4D4D', '#99E6E6', '#6666FF'];

setInterval(() => {
    if (count > colors.length-1) count = 0
    skin.setAttribute("fill", colors[count])
    count++
}, 150)
}
        </script>
        <path d="M0 3070 l0 -1131 35 -30 c19 -17 35 -37 35 -45 0 -8 3 -14 8 -14 4 0 22 -21 39 -48 18 -26 46 -56 63 -67 16 -11 30 -24 30 -30 0 -5 19 -26 43 -45 24 -19 68 -63 99 -97 71 -80 186 -169 278 -216 20 -10 50 -31 67 -47 18 -17 36 -30 40 -30 4 0 28 -21 53 -46 25 -25 64 -59 87 -76 24 -16 43 -33 43 -38 0 -6 7 -10 15 -10 8 0 15 -7 15 -15 0 -8 12 -22 28 -32 15 -10 38 -30 52 -44 39 -42 115 -96 146 -103 15 -4 41 -17 57 -28 38 -27 213 -41 401 -33 155 8 198 20 221 65 9 18 23 30 35 30 16 0 20 -6 18 -32 -3 -28 1 -32 32 -41 56 -15 275 -2 345 21 33 11 76 23 95 27 19 4 47 16 61 26 15 10 39 23 53 29 15 5 42 21 59 33 32 24 124 57 157 57 28 0 51 11 44 21 -3 5 8 14 23 20 47 16 123 129 123 183 0 22 -1 22 -72 12 -98 -14 -260 -14 -446 2 -85 6 -256 12 -380 12 -216 0 -328 8 -452 31 -30 6 -75 15 -100 19 -25 5 -99 19 -165 30 -222 39 -266 50 -306 76 -39 24 -40 27 -38 74 2 35 -2 55 -14 68 -24 26 -22 79 3 92 21 11 177 3 195 -10 6 -4 32 -10 58 -14 27 -3 65 -14 85 -23 34 -16 77 -18 483 -17 409 0 450 2 494 19 44 16 68 17 249 11 255 -8 457 -30 472 -51 9 -12 13 -11 24 9 7 14 40 47 74 74 46 37 66 62 80 98 11 27 27 60 37 74 9 14 20 42 24 62 4 20 16 44 26 54 10 9 19 23 19 30 0 14 25 70 70 154 16 30 29 66 29 78 1 13 10 35 21 49 11 14 20 34 20 43 0 10 7 23 14 30 8 6 20 37 27 68 6 31 23 82 37 112 14 30 29 82 33 115 4 33 12 80 19 105 22 85 32 215 40 490 4 151 12 309 18 350 6 41 16 169 21 283 6 115 13 212 16 216 2 4 8 26 14 49 l9 42 -114 0 -114 0 0 -162 c0 -118 -5 -178 -16 -218 -10 -35 -19 -126 -24 -250 -4 -107 -13 -211 -19 -230 -6 -19 -11 -51 -11 -70 0 -19 -9 -53 -19 -75 -10 -22 -21 -57 -25 -77 -4 -21 -16 -59 -27 -85 -11 -26 -24 -57 -29 -68 -21 -51 -28 -88 -61 -350 -21 -173 -70 -400 -90 -424 -10 -10 -20 -27 -23 -37 -10 -30 -42 -63 -71 -74 -27 -10 -317 -14 -327 -5 -3 3 -135 8 -294 11 -159 3 -316 10 -349 14 -152 21 -212 32 -239 46 -16 8 -34 14 -40 14 -18 0 -123 112 -131 139 -4 13 -20 42 -35 65 -19 28 -36 79 -55 161 -15 66 -31 128 -36 137 -5 10 -9 33 -9 52 0 48 -26 180 -44 218 -8 18 -20 51 -26 73 -7 22 -16 45 -20 50 -4 6 -10 56 -14 112 -6 94 -21 151 -56 215 -6 10 -15 50 -20 89 -6 39 -14 78 -19 87 -4 9 -11 42 -15 72 -4 30 -13 80 -21 110 -8 30 -23 93 -35 140 -12 47 -27 99 -35 115 -7 17 -17 44 -21 60 -4 17 -11 36 -16 42 -6 7 -8 33 -6 58 l3 45 -567 0 -568 0 0 -1130z m1700 -1859 c22 -6 25 -12 24 -55 -1 -73 -35 -86 -244 -93 -127 -5 -157 -3 -235 16 -72 18 -99 30 -134 60 -39 33 -42 40 -32 59 12 22 13 22 304 21 161 -1 303 -4 317 -8z m780 -20 c19 -5 47 -12 63 -15 51 -12 19 -76 -39 -76 -11 0 -35 -7 -52 -16 -24 -12 -68 -16 -179 -17 l-148 -2 -57 43 c-32 23 -58 46 -58 49 0 4 7 15 17 25 15 16 35 18 217 18 111 0 217 -4 236 -9z"/>
        <path d="M1170 4155 c0 -25 4 -45 8 -45 5 0 14 -25 21 -55 7 -30 15 -55 19 -55 4 0 18 -46 31 -103 13 -56 28 -117 33 -135 9 -31 21 -88 55 -267 8 -44 18 -82 22 -85 4 -3 13 -26 21 -53 7 -26 16 -50 20 -52 4 -3 11 -51 15 -107 6 -97 24 -171 63 -257 8 -19 21 -78 29 -130 8 -53 18 -109 23 -126 4 -16 21 -84 36 -150 25 -106 53 -173 77 -183 4 -2 7 -12 7 -23 0 -28 86 -117 135 -139 37 -17 96 -29 250 -50 33 -4 187 -10 343 -12 243 -3 284 -1 292 12 7 11 4 16 -13 18 -12 2 -26 8 -32 13 -5 5 -53 9 -108 9 -54 0 -135 7 -180 15 -45 8 -130 17 -189 21 -68 4 -118 12 -140 22 -34 17 -64 64 -53 82 4 6 146 11 383 12 207 1 355 3 327 5 -78 5 -239 34 -250 44 -5 5 -22 9 -39 9 -16 0 -43 4 -60 10 -17 5 -80 18 -140 29 -122 22 -166 49 -166 103 0 64 93 71 534 41 l249 -16 19 23 c31 38 20 54 -42 62 -30 5 -84 13 -120 19 -36 6 -155 15 -265 20 -110 4 -260 15 -333 23 -129 14 -134 15 -178 51 -60 49 -68 65 -88 165 -10 47 -24 108 -32 136 -8 28 -14 60 -14 72 0 11 -7 33 -15 49 -8 15 -25 53 -39 84 -14 31 -32 62 -41 69 -28 23 -63 113 -70 180 -6 58 -18 115 -46 206 -5 17 -9 40 -9 52 0 11 -4 23 -9 26 -4 3 -11 29 -15 58 -4 29 -11 57 -15 63 -5 5 -11 24 -14 40 -2 17 -12 55 -20 85 -8 30 -18 79 -22 108 l-7 52 -124 0 -124 0 0 -45z"/>
        <path d="M1465 4163 c12 -76 42 -199 55 -224 5 -9 11 -41 15 -73 4 -31 11 -59 16 -62 5 -3 9 -15 9 -26 0 -12 4 -35 9 -52 27 -90 40 -147 46 -204 4 -34 16 -80 26 -102 10 -21 19 -43 19 -47 0 -4 14 -21 30 -36 17 -16 30 -35 30 -44 0 -8 6 -27 13 -41 30 -59 46 -98 50 -127 3 -16 10 -48 15 -70 6 -22 18 -76 28 -120 21 -99 24 -106 74 -145 37 -29 50 -33 168 -47 70 -8 217 -18 327 -22 110 -5 229 -13 265 -20 175 -30 182 -30 211 -8 15 11 33 34 40 51 6 17 28 67 49 111 21 44 49 105 63 135 16 34 28 82 32 125 4 39 18 106 31 149 13 44 24 86 24 94 0 9 7 23 16 33 9 10 18 37 20 61 3 24 9 59 14 78 5 19 11 178 13 353 l4 317 -859 0 -859 0 6 -37z"/>
        <path d="M3219 4178 c-1 -13 -5 -167 -9 -343 -8 -328 -17 -424 -43 -453 -8 -10 -18 -37 -22 -62 -4 -25 -11 -49 -15 -55 -11 -16 -28 -95 -35 -165 -6 -61 -18 -100 -51 -162 -8 -14 -14 -36 -14 -47 0 -12 -4 -21 -10 -21 -5 0 -10 -6 -10 -14 0 -8 -6 -21 -12 -28 -15 -15 -34 -53 -43 -85 -3 -12 -19 -38 -35 -58 -17 -21 -30 -44 -30 -51 0 -8 -4 -14 -9 -14 -5 0 -12 -15 -15 -34 -5 -24 -15 -38 -41 -51 -33 -18 -42 -18 -292 -2 -286 19 -450 22 -473 7 -24 -15 0 -42 51 -55 24 -7 78 -18 119 -24 41 -7 89 -16 106 -22 17 -5 42 -9 55 -9 14 0 29 -4 34 -9 13 -12 182 -41 242 -41 93 0 137 -34 97 -74 -13 -14 -64 -16 -392 -17 -321 -1 -373 -3 -347 -14 17 -7 98 -18 180 -23 83 -6 163 -16 178 -21 16 -6 78 -11 138 -11 60 0 117 -4 127 -9 9 -6 30 -12 45 -16 33 -7 45 -30 29 -56 -7 -10 -12 -21 -12 -24 0 -3 58 -5 129 -5 125 0 131 1 160 26 17 14 31 30 31 35 0 6 9 22 19 37 17 24 29 71 72 292 5 25 13 81 19 125 28 227 41 309 54 338 38 85 54 126 60 160 4 20 16 56 26 79 11 24 20 57 20 73 0 17 7 62 15 100 9 41 15 125 15 205 0 95 6 163 20 229 15 70 20 133 20 243 l0 148 -75 0 c-71 0 -75 -1 -76 -22z"/>
    </g>
    <g id="layer103" fill="#99d9ea" stroke="none">
        <path d="M3674 4173 c-3 -16 -10 -41 -15 -58 -5 -16 -14 -122 -20 -235 -5 -113 -15 -239 -21 -280 -6 -41 -14 -199 -18 -350 -8 -275 -18 -405 -40 -490 -7 -25 -15 -72 -19 -105 -4 -33 -19 -83 -33 -112 -14 -28 -29 -72 -32 -96 -4 -25 -25 -80 -46 -124 -22 -43 -40 -85 -40 -93 -1 -8 -14 -40 -30 -70 -16 -30 -34 -66 -41 -80 -6 -14 -15 -33 -20 -42 -5 -10 -9 -24 -9 -32 0 -7 -8 -24 -19 -37 -10 -13 -22 -35 -25 -49 -4 -14 -26 -63 -49 -109 -33 -67 -55 -96 -109 -145 -38 -33 -68 -66 -68 -73 0 -8 -7 -16 -15 -19 -10 -4 -15 -21 -15 -54 0 -50 -14 -73 -50 -85 -21 -7 -27 -30 -10 -40 20 -12 10 -147 -13 -197 -26 -54 -87 -123 -117 -133 -11 -3 -20 -10 -20 -14 0 -11 -44 -28 -95 -36 -34 -6 -208 -90 -241 -116 -6 -5 -60 -24 -120 -41 -100 -29 -121 -32 -259 -32 -122 -1 -154 2 -173 15 -21 15 -25 15 -67 -6 -37 -19 -67 -24 -187 -30 -79 -3 -197 -2 -263 4 -116 9 -173 26 -261 79 -39 24 -116 87 -125 103 -5 11 -15 19 -22 19 -7 0 -29 19 -48 43 -20 23 -63 62 -95 87 -32 25 -77 62 -98 83 -41 40 -121 97 -136 97 -12 0 -202 137 -217 157 -7 8 -79 84 -162 168 -82 84 -160 171 -173 194 -12 22 -26 41 -30 41 -5 0 -8 -423 -8 -940 l0 -940 2100 0 2100 0 0 2100 0 2100 -260 0 -260 0 -6 -27z"/>
    </g>
    <g id="layer104" fill="#ffaec9" stroke="none">
        <path d="M950 1658 c0 -5 13 -22 30 -38 28 -26 37 -28 183 -39 85 -7 188 -18 228 -26 41 -7 103 -19 139 -25 36 -6 92 -16 125 -22 33 -6 94 -17 135 -24 120 -22 391 -17 737 12 35 3 110 -1 170 -10 144 -21 239 -21 247 0 11 29 6 81 -9 94 -22 18 -216 38 -450 46 -182 6 -203 5 -235 -11 -32 -17 -71 -19 -500 -19 -430 -1 -468 0 -503 17 -21 10 -55 21 -75 24 -20 2 -46 8 -57 13 -32 14 -165 20 -165 8z"/>
        <path d="M980 1530 c0 -27 57 -54 150 -70 41 -7 91 -16 111 -21 20 -5 79 -16 130 -24 52 -9 117 -20 144 -25 137 -27 295 -40 505 -40 124 0 293 -6 375 -12 175 -15 334 -16 423 -4 61 9 62 9 62 41 0 28 -4 33 -37 43 -124 36 -273 43 -503 24 -219 -18 -470 -15 -595 9 -60 11 -143 24 -183 29 -40 5 -76 12 -81 15 -27 16 -355 55 -467 55 -27 0 -34 -4 -34 -20z"/>
    </g>
    <g id="layer105" fill="#ffffff" stroke="none">
        <path d="M1130 1175 c0 -13 57 -39 126 -56 48 -12 111 -19 171 -19 94 0 95 0 89 23 -3 12 -6 30 -6 40 0 16 -16 17 -190 17 -104 0 -190 -2 -190 -5z"/>
        <path d="M1558 1168 c-3 -7 -2 -23 0 -35 4 -22 8 -23 60 -19 52 5 71 16 72 42 0 17 -24 24 -80 24 -29 0 -50 -5 -52 -12z"/>
        <path d="M2095 1143 c17 -9 33 -20 36 -26 10 -14 90 -20 173 -12 72 6 76 8 76 31 l0 24 -157 0 c-151 -1 -157 -2 -128 -17z"/>
        <path d="M2420 1150 c0 -5 12 -10 28 -10 21 0 24 2 12 10 -20 13 -40 13 -40 0z"/>
    </g>


</svg>
